HIERARCHY
ROOT joint_Root
{
	OFFSET 0.0 0.0 0.0
	CHANNELS 6 Xposition Yposition Zposition Zrotation Xrotation Yrotation 
	JOINT Hips
	{
		OFFSET -17.1583 93.1646 452.98
		CHANNELS 6 Xposition Yposition Zposition Zrotation Xrotation Yrotation 
		JOINT Spine
		{
			OFFSET 15.7357 0.0 0.0
			CHANNELS 6 Xposition Yposition Zposition Zrotation Xrotation Yrotation 
			JOINT Chest
			{
				OFFSET 8.98455 -0.406207 0.0
				CHANNELS 6 Xposition Yposition Zposition Zrotation Xrotation Yrotation 
				JOINT Neck
				{
					OFFSET 16.3773 0.0 0.0
					CHANNELS 6 Xposition Yposition Zposition Zrotation Xrotation Yrotation 
					JOINT Head
					{
						OFFSET 6.45672 0.0 0.0
						CHANNELS 6 Xposition Yposition Zposition Zrotation Xrotation Yrotation 
						End Site
						{
							OFFSET 0.0 0.0 0.0
						}
					}
				}
				JOINT Shoulder_L
				{
					OFFSET 12.9942 -0.242716 4.98039
					CHANNELS 6 Xposition Yposition Zposition Zrotation Xrotation Yrotation 
					JOINT UpperArm_L
					{
						OFFSET 5.34809 0.0 0.0
						CHANNELS 6 Xposition Yposition Zposition Zrotation Xrotation Yrotation 
						JOINT LowerArm_L
						{
							OFFSET 24.3286 1.87007e-05 0.0
							CHANNELS 6 Xposition Yposition Zposition Zrotation Xrotation Yrotation 
							JOINT Hand_L
							{
								OFFSET 22.2916 0.0 0.0
								CHANNELS 6 Xposition Yposition Zposition Zrotation Xrotation Yrotation 
								End Site
								{
									OFFSET 0.0 0.0 0.0
								}
							}
						}
					}
				}
				JOINT Shoulder_R
				{
					OFFSET 12.9945 -0.242716 -4.98039
					CHANNELS 6 Xposition Yposition Zposition Zrotation Xrotation Yrotation 
					JOINT UpperArm_R
					{
						OFFSET -5.34813 0.0 0.0
						CHANNELS 6 Xposition Yposition Zposition Zrotation Xrotation Yrotation 
						JOINT LowerArm_R
						{
							OFFSET -24.3289 0.000322201 0.0
							CHANNELS 6 Xposition Yposition Zposition Zrotation Xrotation Yrotation 
							JOINT Hand_R
							{
								OFFSET -22.2915 -0.000108084 0.0
								CHANNELS 6 Xposition Yposition Zposition Zrotation Xrotation Yrotation 
								End Site
								{
									OFFSET 0.0 0.0 0.0
								}
							}
						}
					}
				}
			}
		}
		JOINT UpperLeg_L
		{
			OFFSET -2.19248 -6.46944 0.0
			CHANNELS 6 Xposition Yposition Zposition Zrotation Xrotation Yrotation 
			JOINT LowerLeg_L
			{
				OFFSET 39.0811 0.0 -1.23785e-05
				CHANNELS 6 Xposition Yposition Zposition Zrotation Xrotation Yrotation 
				JOINT Foot_L
				{
					OFFSET 40.9854 0.0 -1.26872e-05
					CHANNELS 6 Xposition Yposition Zposition Zrotation Xrotation Yrotation 
					JOINT Toes_L
					{
						OFFSET 11.7543 0.0 0.0
						CHANNELS 6 Xposition Yposition Zposition Zrotation Xrotation Yrotation 
						End Site
						{
							OFFSET 0.0 0.0 0.0
						}
					}
				}
			}
		}
		JOINT UpperLeg_R
		{
			OFFSET -2.19251 6.46944 0.0
			CHANNELS 6 Xposition Yposition Zposition Zrotation Xrotation Yrotation 
			JOINT LowerLeg_R
			{
				OFFSET -39.0811 -0.00228153 -0.0401928
				CHANNELS 6 Xposition Yposition Zposition Zrotation Xrotation Yrotation 
				JOINT Foot_R
				{
					OFFSET -40.9854 0.0 0.0
					CHANNELS 6 Xposition Yposition Zposition Zrotation Xrotation Yrotation 
					JOINT Toes_R
					{
						OFFSET -11.7543 0.0 0.0
						CHANNELS 6 Xposition Yposition Zposition Zrotation Xrotation Yrotation 
						End Site
						{
							OFFSET 0.0 0.0 0.0
						}
					}
				}
			}
		}
	}
}
MOTION
Frames:	7
Frame Time:	0.0333333
0.000000 0.000000 0.000000 0.000000 0.000000 -0.000000 0.724140 93.055400 -0.504070 87.756400 -1.844850 2.899440 15.735700 0.000005 -0.000001 104.359000 86.121200 -104.904000 8.984550 -0.406207 -0.000000 -0.240989 1.961420 -1.085120 16.377300 -0.000001 -0.000001 -1.175790 1.923050 0.176686 6.456720 -0.000001 -0.000000 2.706490 1.668450 6.647330 12.994200 -0.242716 4.980390 -92.114200 6.782490 -72.641700 5.348090 -0.000007 -0.000001 -68.095700 19.544500 -5.494590 24.328600 0.000019 0.000005 6.595540 22.035700 -17.128300 22.291600 -0.000001 0.000005 -1.535740 4.954210 8.278250 12.994500 -0.242716 -4.980390 88.765000 4.875360 -75.766300 -5.348130 -0.000001 -0.000004 -72.909900 28.059800 -4.207490 -24.328900 0.000322 -0.000009 0.284670 1.112820 -14.399400 -22.291500 -0.000108 -0.000004 2.578230 5.257080 1.245020 -2.192480 -6.469440 -0.000000 -173.883000 -7.064780 -0.015610 39.081100 -0.000007 -0.000012 0.026780 -0.085407 17.409100 40.985400 -0.000006 -0.000013 -0.031248 11.280300 -69.076300 11.754300 -0.000000 0.000003 -0.001413 0.188737 -8.920250 -2.192510 6.469440 -0.000001 176.244000 6.612960 -177.993000 -39.081100 -0.002282 -0.040193 0.008380 -0.023190 12.272800 -40.985400 0.000008 0.000006 -6.684880 9.170560 -66.228800 -11.754300 -0.000006 -0.000006 -0.011195 0.280027 -5.194100
0.000000 0.000000 0.000000 0.000000 0.000000 -0.000000 0.685220 93.058000 -0.426610 87.776900 -1.723980 2.742170 15.735700 0.000005 -0.000001 103.675000 86.139300 -104.089000 8.984550 -0.406207 -0.000000 -0.256402 1.854040 -0.823533 16.377300 -0.000001 -0.000001 -1.647180 1.876880 0.510859 6.456720 -0.000001 -0.000000 2.280220 1.782570 6.867450 12.994200 -0.242716 4.980390 -92.144200 6.886330 -72.658300 5.348090 -0.000007 -0.000001 -67.651200 17.328200 -6.110770 24.328600 0.000019 0.000005 6.602330 23.013100 -16.492300 22.291600 -0.000001 0.000005 -2.067460 4.964970 8.055180 12.994500 -0.242716 -4.980390 88.775200 4.842680 -75.787900 -5.348130 -0.000001 -0.000004 -72.822800 26.670700 -4.469230 -24.328900 0.000322 -0.000009 0.069770 0.287923 -13.814800 -22.291500 -0.000108 -0.000004 3.161490 5.261750 1.120310 -2.192480 -6.469440 -0.000000 -173.867000 -7.139820 -0.086060 39.081100 -0.000007 -0.000012 0.024811 -0.079647 17.302900 40.985400 -0.000006 -0.000013 -0.031650 11.500200 -69.095400 11.754300 -0.000000 0.000003 -0.001604 0.191269 -8.817300 -2.192510 6.469440 -0.000001 176.276000 6.616230 -178.056000 -39.081100 -0.002282 -0.040193 0.008520 -0.023950 12.216100 -40.985400 0.000008 0.000006 -6.692240 9.003580 -66.262800 -11.754300 -0.000006 -0.000006 -0.011498 0.282174 -5.106220
0.000000 0.000000 0.000000 0.000000 0.000000 -0.000000 0.641836 93.060000 -0.357421 87.863000 -1.585260 2.529890 15.735700 0.000005 -0.000001 103.265000 86.164200 -103.532000 8.984550 -0.406207 -0.000000 -0.294736 1.778610 -0.529181 16.377300 -0.000001 -0.000001 -2.137900 1.845070 0.849179 6.456720 -0.000001 -0.000000 1.802330 1.881930 7.180160 12.994200 -0.242716 4.980390 -92.188000 7.041630 -72.689800 5.348090 -0.000007 -0.000001 -66.656400 15.126700 -6.961270 24.328600 0.000019 0.000005 6.658500 24.105700 -15.951600 22.291600 -0.000001 0.000005 -4.209330 5.011240 7.073660 12.994500 -0.242716 -4.980390 88.785400 4.786980 -75.745500 -5.348130 -0.000001 -0.000004 -72.724300 25.336500 -4.749240 -24.328900 0.000322 -0.000009 -0.098710 -0.412096 -13.337500 -22.291500 -0.000108 -0.000004 3.602480 5.255450 1.288090 -2.192480 -6.469440 -0.000000 -173.932000 -7.218530 -0.199065 39.081100 -0.000007 -0.000012 0.024608 -0.079698 17.159400 40.985400 -0.000006 -0.000013 -0.047656 11.664100 -69.129800 11.754300 -0.000000 0.000003 -0.001609 0.191337 -8.814520 -2.192510 6.469440 -0.000001 176.289000 6.491250 -178.242000 -39.081100 -0.002282 -0.040193 0.010776 -0.034187 12.278600 -40.985400 0.000008 0.000006 -6.529660 8.713360 -66.462000 -11.754300 -0.000006 -0.000006 -0.011738 0.283863 -5.037020
0.000000 0.000000 0.000000 0.000000 0.000000 -0.000000 0.557275 93.056800 -0.290946 87.904800 -1.406620 2.333530 15.735700 0.000005 -0.000001 102.932000 86.214700 -103.008000 8.984550 -0.406207 -0.000000 -0.386133 1.699290 -0.146323 16.377300 -0.000001 -0.000001 -2.596390 1.719850 1.356430 6.456720 -0.000001 -0.000000 1.437290 2.005270 7.404990 12.994200 -0.242716 4.980390 -92.304000 7.371160 -72.588500 5.348090 -0.000007 -0.000001 -64.866200 11.938600 -8.198990 24.328600 0.000019 0.000005 6.879260 26.317500 -15.223200 22.291600 -0.000001 0.000005 -8.339590 5.113190 4.795750 12.994500 -0.242716 -4.980390 88.779000 4.802280 -75.716100 -5.348130 -0.000001 -0.000004 -72.478900 24.365300 -4.824520 -24.328900 0.000322 -0.000009 -0.176906 -0.751089 -13.178700 -22.291500 -0.000108 -0.000004 3.686220 5.261010 1.140060 -2.192480 -6.469440 -0.000000 -173.910000 -7.270300 -0.330115 39.081100 -0.000007 -0.000012 0.023700 -0.077161 17.074800 40.985400 -0.000006 -0.000013 -0.080330 11.903600 -69.163900 11.754300 -0.000000 0.000003 -0.001497 0.189861 -8.874560 -2.192510 6.469440 -0.000001 176.378000 6.339960 -178.387000 -39.081100 -0.002282 -0.040193 0.013348 -0.045817 12.327700 -40.985400 0.000008 0.000006 -6.282490 8.321390 -66.688600 -11.754300 -0.000006 -0.000006 -0.011381 0.281351 -5.139900
0.000000 0.000000 0.000000 0.000000 0.000000 -0.000000 0.450588 93.042900 -0.157040 87.998600 -1.249350 2.258590 15.735700 0.000005 -0.000001 102.927000 86.262100 -102.828000 8.984550 -0.406207 -0.000000 -0.480964 1.664920 0.204907 16.377300 -0.000001 -0.000001 -3.068500 1.532850 1.868860 6.456720 -0.000001 -0.000000 1.282400 2.127210 7.855320 12.994200 -0.242716 4.980390 -92.405100 7.657220 -72.504500 5.348090 -0.000007 -0.000001 -62.244300 7.978330 -9.853280 24.328600 0.000019 0.000005 6.351740 27.396200 -13.599400 22.291600 -0.000001 0.000005 -13.285200 5.199780 2.711070 12.994500 -0.242716 -4.980390 88.731900 4.975660 -75.682300 -5.348130 -0.000001 -0.000004 -72.102600 23.450500 -4.632800 -24.328900 0.000322 -0.000009 -0.282059 -1.193440 -13.250800 -22.291500 -0.000108 -0.000004 3.540480 5.261830 1.118130 -2.192480 -6.469440 -0.000000 -173.891000 -7.399200 -0.266729 39.081100 -0.000007 -0.000012 0.020253 -0.066524 16.932800 40.985400 -0.000006 -0.000013 -0.119601 12.208900 -69.139200 11.754300 -0.000000 0.000003 -0.001503 0.189943 -8.871220 -2.192510 6.469440 -0.000001 176.411000 6.213260 -178.450000 -39.081100 -0.002282 -0.040193 0.016603 -0.059651 12.540800 -40.985400 0.000008 0.000006 -6.007530 8.048680 -67.023500 -11.754300 -0.000006 -0.000006 -0.011571 0.282692 -5.084970
0.000000 0.000000 0.000000 0.000000 0.000000 -0.000000 0.300312 93.027100 0.021675 88.064100 -1.073350 2.077800 15.735700 0.000005 -0.000001 102.600000 86.390700 -102.299000 8.984550 -0.406207 -0.000000 -0.725240 1.552030 0.612431 16.377300 -0.000001 -0.000001 -3.499890 1.549620 2.101760 6.456720 -0.000001 -0.000000 1.261520 2.302330 8.768720 12.994200 -0.242716 4.980390 -92.374500 7.491620 -72.357600 5.348090 -0.000007 -0.000001 -59.746200 1.555240 -11.675500 24.328600 0.000019 0.000005 5.172380 27.674300 -11.028700 22.291600 -0.000001 0.000005 -17.050900 5.227250 2.026450 12.994500 -0.242716 -4.980390 88.695700 5.095920 -75.623300 -5.348130 -0.000001 -0.000004 -71.795000 22.523200 -4.404650 -24.328900 0.000322 -0.000009 -0.299043 -1.269850 -13.207900 -22.291500 -0.000108 -0.000004 3.597310 5.262720 1.094160 -2.192480 -6.469440 -0.000000 -173.836000 -7.498380 -0.263551 39.081100 -0.000007 -0.000012 0.018073 -0.059934 16.781100 40.985400 -0.000006 -0.000013 -0.190861 12.472400 -69.189700 11.754300 -0.000000 0.000003 -0.001304 0.187270 -8.979880 -2.192510 6.469440 -0.000001 176.509000 6.339390 -178.542000 -39.081100 -0.002282 -0.040193 0.020889 -0.078001 12.683700 -40.985400 0.000008 0.000006 -5.499600 7.890060 -67.393600 -11.754300 -0.000006 -0.000006 -0.011206 0.280110 -5.190710
0.000000 0.000000 0.000000 0.000000 0.000000 -0.000000 0.138206 93.014000 0.223891 88.131500 -1.079560 1.863840 15.735700 0.000005 -0.000001 102.208000 86.600700 -101.654000 8.984550 -0.406207 -0.000000 -1.127650 1.394310 1.121340 16.377300 -0.000001 -0.000001 -3.865010 1.729950 2.403430 6.456720 -0.000001 -0.000000 1.444260 2.847400 9.595320 12.994200 -0.242716 4.980390 -92.175500 6.752140 -72.094600 5.348090 -0.000007 -0.000001 -57.767300 -7.387670 -13.753200 24.328600 0.000019 0.000005 3.271850 27.328600 -7.097700 22.291600 -0.000001 0.000005 -17.699600 5.203960 2.618130 12.994500 -0.242716 -4.980390 88.675700 5.143410 -75.540400 -5.348130 -0.000001 -0.000004 -71.414600 21.444300 -4.203090 -24.328900 0.000322 -0.000009 -0.221852 -0.964031 -12.901600 -22.291500 -0.000108 -0.000004 3.504420 5.262200 1.108130 -2.192480 -6.469440 -0.000000 -173.744000 -7.863620 -0.209854 39.081100 -0.000007 -0.000012 0.014804 -0.049798 16.556300 40.985400 -0.000006 -0.000013 -0.273812 12.822900 -69.257400 11.754300 -0.000000 0.000003 -0.001395 0.188500 -8.929890 -2.192510 6.469440 -0.000001 176.642000 6.136940 -178.629000 -39.081100 -0.002282 -0.040193 0.025999 -0.100318 12.731100 -40.985400 0.000008 0.000006 -4.908760 7.565630 -67.755200 -11.754300 -0.000006 -0.000006 -0.011154 0.279736 -5.206000
